# xmcd CD database file
#
# Track frame offsets:
#	150
#	48167
#	143715
#	210571
#
# Disc length: 4130 seconds
#
# Revision: 0
# Processed by: cddbd v1.5.1PL0 Copyright (c) Steve Scherf et al.
# Submitted via: CDex 1.51
#
DISCID=30102004
DTITLE=Natsuki Tamura - Elliott Sharp - Takayuki Kato - Satoko Fujii - In the Tank
DYEAR=2005
DGENRE=Jazz
TTITLE0=Walking Squid
TTITLE1=Flying Jellyfish
TTITLE2=Sinking Shrimp
TTITLE3=Crowing Crab
EXTD=YEAR: 2005
EXTT0=
EXTT1=
EXTT2=
EXTT3=
PLAYORDER=
